<?xml version="1.0" encoding="UTF-8"?>
<svg id="Layer_2" data-name="Layer 2" xmlns="http://www.w3.org/2000/svg" viewBox="0 0 242.21 321.93">
  <defs>
    <style>
      .cls-1 {
        fill: #000;
        stroke-width: 0px;
      }
    </style>
  </defs>
  <g id="Layer_1-2" data-name="Layer 1">
    <g>
      <path class="cls-1" d="M124.38,183.13c.35-.55.49-.97-.43.57.02-.03.05-.06.07-.08.12-.16.24-.32.36-.48Z"/>
      <polygon class="cls-1" points="92.83 18.96 92.82 18.96 92.83 18.97 92.83 18.97 92.83 18.96"/>
      <path class="cls-1" d="M93.05,19.14s-.04-.01-.06-.02c.33.29.65.41.83.42-.28-.13-.55-.26-.77-.41Z"/>
      <path class="cls-1" d="M96.75,194.45c-2.14-.42-.71-.07,0,0h0Z"/>
      <path class="cls-1" d="M94.84,20.15c-.39-.28-.66-.42,0,0h0Z"/>
      <path class="cls-1" d="M96.74,22.23c-.15-.23-.3-.47-.44-.7-.02-.02-.03-.04-.05-.06.48.88.59.97.49.76Z"/>
      <path class="cls-1" d="M92.05,18.98c-.22,0-.43,0-.59,0-.04.01-.11.02-.18.04.19.09.53.04.77-.03Z"/>
      <path class="cls-1" d="M97.99,62.41c0-.07.02-.14.03-.21.02-.16.04-.33.06-.49.07-.62.1-1.17-.09.7Z"/>
      <path class="cls-1" d="M84.88,109.61c.03-.07.06-.13.09-.2.09-.23.18-.46.28-.68.16-.45.22-.72-.37.88Z"/>
      <path class="cls-1" d="M147.83,184.54s0,0,0,.01c-.1-.34-.17-.59-.23-.76.08.25.15.5.22.75Z"/>
      <path class="cls-1" d="M176.51,114.81s-.01,0-.02,0c-.13.04-.38.09-.65.14.27-.01.62-.06.72-.15-.01,0-.03,0-.04,0Z"/>
      <path class="cls-1" d="M180.33,114.99s-.03,0-.05-.01c.25.13.41.21.5.25-.15-.08-.3-.16-.46-.24Z"/>
      <path class="cls-1" d="M153.08,191.67s.07.06.11.08c.15.1.3.21.45.31.22.14.2.1-.55-.39Z"/>
      <path class="cls-1" d="M174.72,190.06s.04-.02.05-.04c.17-.16.44-.35.62-.49.39-.42-.06-.43-.67.52Z"/>
      <path class="cls-1" d="M156.04,193.5s.03.02.05.02c.34.1.68.22,1.02.34.08-.01-.16-.13-1.06-.36Z"/>
      <path class="cls-1" d="M181.96,115.96c-.06-.04-.12-.09-.19-.14-.03-.02-.05-.04-.08-.05-.06-.04-.13-.08-.2-.12.74.97,1.02.77.46.31Z"/>
      <path class="cls-1" d="M185.05,119.27c.33.54.24.37,0,0h0Z"/>
      <path class="cls-1" d="M184.11,177.22c.09-.16.15-.28.2-.35,0-.02.01-.03.02-.05-.06.05-.14.22-.22.4Z"/>
      <path class="cls-1" d="M135.6,274.57c-.05.1-.1.19-.15.29-.05.09-.09.18-.13.27.64-1.12.53-.99.29-.56Z"/>
      <path class="cls-1" d="M239.53,246.4c-2.24-2.64-4.35-5.43-7.04-7.62-5.42-4.43-11.17-7.74-17.83-9.97-3.31-1.11-6.72-1.89-10.17-2.39.16-4.67.32-9.34.53-14,.69-15.66,1.39-31.31,2.08-46.97.06-1.32.12-2.63.17-3.95.24-1.85.43-3.7.59-5.53.51-5.94.6-11.92.26-17.88-.36-6.18-.92-12.58-2.42-18.6-1.42-5.68-4.27-10.61-8.21-14.91-2.4-2.62-5.11-4.69-8.11-6.17-.89-.66-1.91-1.17-3.06-1.49-11.58-3.22-23.33.85-32.3,8.3-7.49,6.22-12.65,15.2-16.63,23.95-4.36,9.6-7.67,19.61-9.33,30.04-1.02,6.42-1.48,12.78-.87,19.03-.04.08-.09.17-.13.25-.74,1.54-1.58,3.02-2.55,4.43-.04.06-.08.12-.13.18-.09.14-.2.29-.3.42-.02.02-.04.04-.06.07-.08.11-.15.22-.22.33.05-.09.1-.17.15-.24-.53.63-1.09,1.24-1.67,1.83-.63.64-1.28,1.25-1.95,1.85-.68.59-2.94,1.94-.36.37-1.54.94-2.96,2.06-4.55,2.94-.72.4-1.46.78-2.2,1.13-.2.1-.41.19-.61.28-1.67.61-3.34,1.18-5.07,1.61-.81.2-1.62.38-2.43.53-.27.05-.55.09-.83.14-1.68.15-3.36.25-5.05.21-.82-.02-1.65-.07-2.47-.14,0,0-.01,0-.02,0,.17.03.36.07.57.11-.32-.06-.65-.1-.98-.15-1.78-.3-3.55-.74-5.26-1.32-.3-.1-.6-.21-.9-.32-.69-.36-1.43-.65-2.11-1.01-1.61-.86-3.04-1.9-4.57-2.88-.26-.21-.51-.42-.76-.64-.62-.54-1.23-1.1-1.81-1.68-1.19-1.18-2.21-2.49-3.32-3.72-.19-.26-.38-.52-.56-.79-.47-.68-.92-1.38-1.36-2.08-.97-1.57-1.85-3.18-2.66-4.84-.33-.67-.63-1.35-.94-2.03-.11-.28-.23-.57-.34-.85-.4-1.03-.77-2.08-1.12-3.13,6.89-8.38,13.16-17.28,18.7-26.6,18.03-30.33,28.56-65.33,29.13-100.68.17-10.32.05-22.01-6.34-30.68-3.55-4.82-8.24-8.64-14.08-10.34-6.36-1.85-13.23-.48-18.81,2.93-17.4,10.63-23.67,31.83-27.3,50.64-4.28,22.2-6.06,44.87-5.88,67.47.12,14.08.48,28.71,3.59,42.6-5.3,5.8-10.93,11.3-16.87,16.44-1.45,1.25-2.92,2.49-4.4,3.7-.74.61-1.49,1.21-2.24,1.8-.29.23-.58.46-.87.69-.13.1-.26.2-.39.3-3.21,2.44-6.5,4.77-9.86,7.01-3.37,2.24-6.81,4.36-10.31,6.39-4.29,2.48-6.17,8.68-3.4,12.97,2.79,4.33,8.37,6.06,12.97,3.4,15.5-8.96,29.75-20,42.4-32.64,6.53,12.81,16.86,23.52,31.26,27.44,16.17,4.4,34.9-.47,46.92-12.19,4.53,6.15,11.11,10.93,18.48,12.77,9.69,2.41,20.09.36,28.64-4.62,1.57-.91,3.04-1.91,4.43-2.98-.31,7.09-.63,14.19-.95,21.28-3.31.35-6.59.86-9.81,1.51-12.17,2.45-24.45,7.19-34.84,14.04-11,7.26-20.81,17.51-24.51,30.47-3.14,11.03-1.42,23.84,4.72,33.56,3.12,4.95,7.4,9.37,12.57,12.19,7.09,3.86,14.87,4.62,22.76,3.46,14.01-2.06,25.72-11.74,33.47-23.15,8.19-12.05,11.33-26.51,12.82-40.78.42-3.99.73-7.99.98-12,2.12.43,4.21.98,6.26,1.68.61.21,1.21.44,1.82.66.02,0,.04.02.06.03,1.27.58,2.51,1.22,3.72,1.92,1.13.66,2.22,1.39,3.3,2.14.02.01.03.02.05.04.24.19.48.39.72.59.77.65,1.48,1.33,2.16,2.08,1.52,1.68,2.96,3.44,4.42,5.17,3.22,3.79,10.13,3.56,13.4,0,3.71-4.04,3.44-9.36,0-13.4ZM92.26,18.89c-.07-.01-.15-.03-.22-.05.29-.05.32,0,.22.05ZM65.31,103.41c.21-5.16.53-10.32.97-15.46.22-2.57.47-5.14.76-7.71.14-1.22.28-2.44.43-3.66.07-.61.15-1.22.23-1.83.01-.1.02-.18.03-.25.02-.13.04-.3.07-.52,1.34-9.53,2.98-19.12,5.58-28.4.53-1.9,1.11-3.78,1.75-5.64.32-.93.66-1.85,1.01-2.77.18-.46.48-.99.62-1.48,0-.01.01-.03.02-.04.81-1.76,1.69-3.49,2.67-5.17.49-.83,1-1.65,1.53-2.45.31-.46.62-.92.95-1.37.63-.32,1.35-1.63,1.85-2.17.73-.78,1.48-1.54,2.27-2.26.36-.33.73-.66,1.1-.97.27-.23,1.75-1.04.5-.42-1.35.66.41-.24.61-.37.63-.41,1.28-.78,1.94-1.12.1-.05.19-.1.27-.14.27-.07.58-.15.8-.2-.03-.02-.06-.03-.08-.06,0,0,.11.01.26.02.02,0,.04,0,.06-.01.21-.05.36-.08.49-.1.07.02.15.04.23.06-.05.02-.1.04-.17.06.14,0,.28,0,.41,0,.18.05.36.1.54.14-.05-.05-.11-.1-.16-.16-.01,0-.03,0-.06,0,.02,0,.04,0,.06,0-.01-.02-.03-.03-.04-.05.01.02.03.03.05.04,0,0,.02,0,.02,0,0,0,0,0-.02,0,.06.06.14.12.22.17.16.04.32.09.47.13.54.14.54.3.29.28.33.15.66.29.88.44.31.2.6.44.91.63-.34-.21-.58-.36-.77-.47.18.13.39.29.54.43.27.26.53.52.78.8.03.03.06.06.08.1-.05-.09-.1-.19-.16-.29.06.12.14.24.21.35.21.26.38.56.44.7.28.42.56.84.79,1.28.11.22.77,2.12.35.68-.43-1.48.33,1.09.4,1.35.31,1.06.56,2.13.76,3.21.03.14.15,1.22.18,1.31,0,.06,0,.1.01.12.21,2.37.27,4.75.29,7.12.07,7.92-.39,15.85-1.35,23.71-.03.23-.06.46-.09.69-.02.15-.03.31-.05.44,0,.02,0,.04,0,.05-.02.17-.04.34-.06.5.01-.11.02-.2.03-.3-.14.94-.28,1.88-.42,2.81-.33,2.05-.69,4.09-1.08,6.13-.75,3.89-1.63,7.76-2.62,11.6-1.99,7.69-4.45,15.25-7.35,22.65-.35.88-.7,1.76-1.06,2.64-.07.17-.14.33-.21.5-.05.13-.1.27-.15.38-.04.1-.09.2-.13.3-.05.13-.11.26-.16.39.03-.07.05-.13.07-.2-.76,1.75-1.53,3.49-2.34,5.22-1.76,3.79-3.64,7.52-5.64,11.19-3.37,6.21-7.07,12.25-11.06,18.08-.24-3.23-.4-6.46-.52-9.69-.39-10.33-.42-20.67,0-30.99ZM179.14,114.73h0s-.01,0,0,0ZM179.98,114.82s.01,0,.01,0c0,0,.02.01.03.02,0,0-.01,0-.02,0,0,0-.02,0-.02-.01ZM145.93,177.45c.03.26.06.51.1.77-.07-.3-.13-.62-.1-.77ZM184.77,175.66c-.14.39-.29.77-.44,1.16.01,0,.02-.02.03-.01,0,0-.02.02-.05.07-.03.07-.06.15-.08.22-.49,1.24-.32.63-.11.13-.64,1.21-2.33,4.64-2.55,5-.42.7-.86,1.38-1.31,2.05-.24.35-.49.7-.74,1.04-1.25,1.46-2.54,2.87-4.01,4.13-.03.02-.07.06-.12.1-.09.09-.21.2-.38.32-.08.06-.16.11-.24.16-.05.05-.09.09-.12.14.02-.04.04-.07.06-.1-.6.42-1.2.82-1.82,1.19-.8.49-1.63.94-2.47,1.36-.27.13-.54.26-.81.38,0,0-.02,0-.02,0-1.59.56-3.18,1.06-4.83,1.39-.22.04-1.12.14-1.12.15-.79.06-1.59.09-2.39.07-.87-.02-3.76-.62-.74.06-.8-.18-1.61-.29-2.4-.5-.34-.09-.67-.2-1-.32-.08.02-.49-.07-.86-.26-.05-.03-.1-.05-.15-.08-.11-.03-.22-.07-.33-.09.1.03.19.05.28.07-.45-.23-.89-.46-1.32-.72-.38-.22-.74-.47-1.1-.72-.11-.07-.28-.18-.45-.31-.2-.14-.39-.27-.59-.4.19.12.35.22.49.31-.04-.03-.07-.06-.11-.09-.35-.31-.7-.64-1.04-.97-.52-.52-1-1.08-1.5-1.62-.31-.45-.62-.89-.92-1.36-.41-.65-.79-1.31-1.14-1.98-.19-.36-.37-.72-.54-1.09.02.08.04.15.07.24-.02-.08-.05-.17-.07-.25-.03-.06-.06-.12-.09-.18-.26-.56-.4-1.37-.13-.57-.51-1.65-1.1-3.25-1.43-4.97-.02-.09-.08-.32-.14-.56-.03-.24-.06-.48-.08-.72-.1-1.05-.17-2.1-.21-3.15-.08-2.35.02-4.7.23-7.03.04-.47.09-.94.14-1.4.01-.13.02-.37.03-.6.06-.81.29-1.65.43-2.45.39-2.27.86-4.53,1.4-6.77,1.05-4.38,2.38-8.69,3.96-12.9.34-.89.66-1.82,1.03-2.71.08-.16.17-.36.23-.49.29-.63.56-1.27.85-1.9,1.04-2.25,2.15-4.47,3.35-6.64,1.11-2.02,2.3-4,3.6-5.9.24-.35.48-.69.72-1.03.18-.26.37-.51.56-.76.42-.56.25-.34-.52.68.07-.64,1.83-2.15,2.25-2.61.79-.84,1.6-1.65,2.46-2.41.31-.28.64-.54.95-.82,0,0,0,0,0,0,.02-.01.04-.02.06-.04,1.05-.68,2.06-1.36,3.17-1.95.37-.2.74-.37,1.11-.56.03-.01.05-.02.07-.04.97-.34,1.93-.66,2.92-.91.08-.02.61-.11,1.07-.2-.46.02-.73-.05.65-.14.06-.02.09-.03.1-.04,0,.01-.02.03-.03.04.98-.06,1.95-.04,2.93,0,.27.06.53.12.8.18-.03-.01-.05-.02-.07-.04.02,0,.04.01.06.02.02,0,.04.02.05.03.02,0,.04.01.07.02.39.15.64.33.39.23.24.13.48.26.72.41-.05-.07-.11-.15-.17-.23.09.12.26.27.44.4.07.05.13.1.19.14.08.06.16.12.21.16.74.65,1.43,1.35,2.09,2.08.25.28.57.75.78,1.07-.12-.19-.3-.48-.54-.88.37.6.82,1.15,1.19,1.75.38.62,1.17,1.59,1.22,2.33-.15-.35-.31-.7-.46-1.05.12.31.22.62.32.93.24.73.45,1.47.64,2.21.47,1.9.94,3.95,1.08,5.91-.18-2.56.09.85.16,1.47.14,1.33.27,2.66.37,4,.35,4.61.44,9.24.27,13.87-.02.42-.03.83-.05,1.25-.34.95-.54,1.98-.59,3.06-.11,2.37-.21,4.74-.31,7.11,0,.05-.02.09-.02.13-.61,3.95-1.46,7.88-2.66,11.7-.28.88-.57,1.75-.88,2.62ZM140.5,299.92c-.05-.09.36.26.72.56-.3-.17-.6-.37-.72-.56ZM183.33,260.54c-.08.46-.14.92-.21,1.38-.13.81-.26,1.61-.41,2.41-.31,1.72-.67,3.43-1.07,5.13-.76,3.2-1.7,6.36-2.88,9.43-.2.53-.43,1.04-.63,1.57.97-2.62.22-.55-.07.07-.6,1.29-1.24,2.56-1.93,3.8-.65,1.16-1.33,2.3-2.06,3.42-.36.56-.74,1.11-1.12,1.65-.11.16-.42.58-.68.93-.25.31-.65.81-.79.98-.43.5-.87,1-1.32,1.49-.96,1.04-1.96,2.04-3.01,2.99-.49.44-.99.87-1.49,1.29-.06.05-.11.09-.16.13-1.13.8-2.26,1.57-3.46,2.26-1.06.62-2.16,1.16-3.26,1.7h0s-.06.03-.1.04c-.8.3-1.6.58-2.42.82-.76.23-1.52.43-2.3.61-.44.1-.89.17-1.33.27-.04,0-.09.02-.15.03-.5.04-1.19.1-1.37.11-.9.04-1.8.04-2.7,0-.22-.01-.78-.11-1.12-.12-.43-.09-.87-.17-1.3-.28-.53-.14-1.05-.29-1.56-.47-.06-.02-.12-.04-.18-.06-.81-.46-1.67-.83-2.46-1.33-.11-.07-.28-.16-.46-.26-.22-.19-.44-.37-.66-.56-.78-.7-1.52-1.45-2.21-2.23-.3-.34-.56-.71-.86-1.04.24.26.43.47.57.64-.15-.19-.31-.39-.42-.56-.59-.89-1.13-1.81-1.62-2.76-.21-.4-.39-.8-.58-1.2-.02-.04-.03-.08-.05-.12-.74-1.99-1.24-4.03-1.62-6.12,0,0,0,0,0,0-.03-.55-.09-1.09-.11-1.64-.05-1.17-.04-2.35.03-3.52.02-.38.06-.77.1-1.15,0-.02,0-.03.01-.05.24-1.15.48-2.28.81-3.4.13-.45.28-.89.44-1.33.04-.11.09-.24.15-.36-.05.09-.1.18-.16.29.1-.18.2-.37.3-.56.05-.1.11-.2.15-.29.44-.88.83-1.79,1.32-2.65.65-1.13,1.35-2.23,2.09-3.29.06-.09.18-.25.32-.44.17-.19.94-1.16,1.13-1.38,1.79-2.06,3.76-3.96,5.85-5.72.2-.17.87-.7,1.13-.91.23-.17.46-.34.56-.42,1.17-.84,2.37-1.65,3.59-2.42,2.38-1.5,4.85-2.87,7.38-4.12,1.14-.56,2.28-1.1,3.44-1.61.14-.06.26-.12.35-.16.65-.26,1.3-.53,1.96-.78,2.62-1.01,5.27-1.91,7.96-2.7,2.73-.8,5.49-1.48,8.28-2.04,1.21-.24,2.42-.44,3.63-.64-.22,5.36-.49,10.77-1.37,16.03,0-.02.28-1.88.1-.79Z"/>
      <path class="cls-1" d="M138.19,297.35c.43.52.81.91,0,0h0Z"/>
    </g>
  </g>
</svg>