<?xml version="1.0" encoding="UTF-8"?>
<svg id="Layer_2" data-name="Layer 2" xmlns="http://www.w3.org/2000/svg" viewBox="0 0 3500 4652.01">
  <defs>
    <style>
      .cls-1 {
        fill: #f0f0f0;
        stroke-width: 0px;
      }
    </style>
  </defs>
  <g id="Layer_1-2" data-name="Layer 1">
    <path id="lg_outline" class="cls-1" d="M3461.28,3560.59c-32.36-38.1-62.88-78.41-101.76-110.17-78.34-64.01-161.42-111.77-257.68-144.05-47.89-16.06-97.08-27.28-146.94-34.47,2.38-67.51,4.65-134.98,7.64-202.26,10.03-226.22,20.06-452.45,30.09-678.67.84-19.01,1.69-38.03,2.53-57.04,3.43-26.76,6.24-53.43,8.53-79.87,7.41-85.88,8.68-172.29,3.71-258.35-5.16-89.36-13.31-181.74-35.01-268.74-20.48-82.14-61.67-153.36-118.58-215.42-34.67-37.81-73.8-67.73-117.21-89.09-12.79-9.51-27.59-16.92-44.2-21.53-167.33-46.53-337.06,12.33-466.81,119.98-108.25,89.81-182.82,219.62-240.24,346.1-63,138.78-110.76,283.37-134.81,434.11-14.81,92.8-21.39,184.7-12.58,274.98-.64,1.21-1.3,2.39-1.89,3.63-10.71,22.24-22.85,43.62-36.85,63.96-.59.85-1.21,1.7-1.84,2.54-1.33,2.06-2.85,4.23-4.36,6.03-.27.32-.56.63-.83.95-1.12,1.56-2.22,3.13-3.18,4.75.77-1.3,1.43-2.39,2.12-3.54-7.72,9.1-15.74,17.93-24.09,26.46-9.04,9.24-18.43,18.13-28.13,26.67-9.76,8.59-42.48,28.02-5.23,5.34-22.32,13.59-42.72,29.74-65.72,42.48-10.43,5.78-21.04,11.24-31.8,16.38-2.94,1.4-5.9,2.74-8.85,4.1-24.11,8.84-48.25,17.09-73.2,23.31-11.63,2.9-23.36,5.46-35.14,7.67-3.97.74-8,1.34-12,2.01-24.3,2.19-48.53,3.65-72.98,3.07-11.91-.28-23.82-.94-35.7-1.99-.08,0-.18-.02-.26-.03,2.45.48,5.18,1.02,8.3,1.65-4.63-.93-9.43-1.41-14.1-2.2-25.79-4.38-51.25-10.7-76.06-19.01-4.37-1.46-8.69-3.06-13.01-4.65-9.96-5.17-20.69-9.37-30.55-14.64-23.19-12.4-43.99-27.47-66-41.57-3.7-3.06-7.4-6.13-11.02-9.29-8.97-7.82-17.7-15.92-26.18-24.27-17.24-16.99-31.87-35.93-47.98-53.77-2.73-3.8-5.47-7.59-8.12-11.44-6.79-9.86-13.32-19.89-19.6-30.07-13.97-22.62-26.73-46-38.38-69.89-4.73-9.69-9.15-19.5-13.6-29.32-1.63-4.09-3.28-8.17-4.87-12.28-5.76-14.93-11.12-30.01-16.2-45.18,99.62-121.09,190.11-249.71,270.2-384.43,260.59-438.32,412.69-944.09,420.99-1454.87,2.42-149.14.75-318.08-91.62-443.36-51.36-69.65-119.14-124.9-203.44-149.37-91.91-26.67-191.12-6.88-271.77,42.4-251.45,153.64-342,459.95-394.43,731.7-61.9,320.86-87.59,648.34-84.9,974.91,1.68,203.47,6.96,414.81,51.86,615.59-76.56,83.85-157.93,163.31-243.8,237.6-20.93,18.11-42.12,35.92-63.57,53.41-10.73,8.75-21.53,17.43-32.38,26.02-4.19,3.32-8.4,6.6-12.61,9.9-1.89,1.44-3.78,2.89-5.67,4.33-46.43,35.22-93.96,69-142.5,101.26-48.68,32.36-98.43,63.07-149.03,92.33-62.05,35.88-89.09,125.43-49.14,187.4,40.36,62.59,121.01,87.53,187.4,49.14,223.93-129.47,429.84-288.97,612.71-471.66,94.3,185.05,243.65,339.89,451.71,396.53,233.65,63.6,504.31-6.76,677.99-176.11,65.52,88.9,160.51,158,267.03,184.52,140.03,34.85,290.33,5.24,413.9-66.81,22.65-13.21,43.9-27.66,63.99-43.07-4.53,102.49-9.09,204.98-13.68,307.46-47.81,4.99-95.23,12.47-141.73,21.84-175.9,35.45-353.37,103.94-503.39,202.91-158.93,104.85-300.75,253.07-354.11,440.29-45.43,159.36-20.53,344.54,68.14,484.94,45.13,71.46,106.88,135.41,181.57,176.1,102.4,55.78,214.89,66.8,328.89,50,202.43-29.83,371.73-169.68,483.7-334.54,118.31-174.19,163.78-383.1,185.28-589.32,6.01-57.63,10.54-115.46,14.18-173.41,30.62,6.19,60.88,14.18,90.44,24.28,8.83,3.02,17.51,6.43,26.29,9.6.31.14.57.26.9.41,18.33,8.38,36.28,17.63,53.69,27.8,16.4,9.58,32.04,20.15,47.63,30.96.28.19.5.34.76.52,3.47,2.82,6.95,5.61,10.37,8.48,11.15,9.33,21.44,19.27,31.19,30.06,21.96,24.28,42.72,49.69,63.9,74.64,46.55,54.82,146.44,51.48,193.7,0,53.56-58.34,49.66-135.23,0-193.7ZM1333.23,273.03c-1.06-.21-2.14-.45-3.2-.68,4.21-.66,4.63-.13,3.2.68ZM943.79,1494.35c3.02-74.56,7.66-149.06,14.07-223.4,3.2-37.16,6.85-74.28,10.95-111.35,1.95-17.65,4.01-35.29,6.17-52.92,1.08-8.81,2.23-17.62,3.32-26.43.18-1.42.32-2.59.44-3.63.27-1.92.62-4.35,1.06-7.48,19.3-137.76,43.09-276.3,80.57-410.41,7.66-27.42,16.02-54.65,25.32-81.56,4.64-13.41,9.5-26.74,14.62-39.98,2.56-6.61,6.97-14.27,8.91-21.34.09-.2.18-.41.27-.61,11.65-25.49,24.46-50.46,38.6-74.66,7.03-12.03,14.41-23.86,22.14-35.46,4.44-6.66,9-13.24,13.68-19.74,9.12-4.56,19.55-23.62,26.7-31.34,10.49-11.33,21.44-22.23,32.82-32.67,5.21-4.78,10.5-9.48,15.9-14.06,3.9-3.31,25.34-14.98,7.23-6.13-19.47,9.51,5.94-3.5,8.84-5.37,9.09-5.88,18.44-11.33,28.09-16.24,1.47-.75,2.72-1.4,3.83-1.99,3.84-1.07,8.42-2.13,11.57-2.84-.45-.22-.85-.49-1.16-.83.09.1,1.58.18,3.77.24.34-.08.63-.14.82-.19,3-.72,5.25-1.18,7.01-1.48,1.08.29,2.17.58,3.26.88-.67.3-1.5.62-2.5.92,2.05,0,4.08,0,5.85-.02,2.59.71,5.17,1.39,7.76,2.09-.78-.68-1.56-1.44-2.34-2.26-.21.04-.5.05-.84.05.35-.02.62-.05.81-.08-.21-.23-.43-.41-.64-.65.2.22.49.42.71.64.1-.02.23-.04.26-.06-.06.03-.14.06-.23.08.9.88,1.96,1.71,3.16,2.52,2.29.61,4.58,1.26,6.86,1.84,7.86,2.03,7.82,4.35,4.23,4.04,4.74,2.17,9.48,4.23,12.76,6.36,4.44,2.88,8.62,6.4,13.11,9.14-4.91-3.01-8.43-5.2-11.06-6.86,2.64,1.87,5.63,4.14,7.8,6.23,3.86,3.72,7.62,7.57,11.26,11.5.41.44.8.91,1.19,1.38-.71-1.31-1.44-2.67-2.27-4.24.92,1.73,1.97,3.4,2.98,5.09,3.03,3.79,5.46,8.05,6.42,10.18,4.02,6.05,8.11,12.1,11.47,18.54,1.65,3.16,11.11,30.7,5.04,9.77-6.21-21.43,4.74,15.82,5.84,19.55,4.5,15.26,8.1,30.77,10.99,46.42.37,2,2.21,17.64,2.57,18.97.07.84.13,1.46.15,1.74,3.09,34.22,3.89,68.6,4.2,102.94,1.05,114.48-5.57,229.02-19.48,342.66-.41,3.31-.87,6.62-1.32,9.93-.24,2.2-.51,4.47-.77,6.32-.04.27-.08.53-.12.79-.31,2.43-.64,4.85-.88,7.28.15-1.53.3-2.93.43-4.28-1.95,13.57-3.98,27.13-6.14,40.66-4.72,29.6-9.93,59.13-15.63,88.56-10.88,56.22-23.51,112.11-37.85,167.55-28.75,111.11-64.31,220.43-106.21,327.27-5,12.74-10.09,25.44-15.26,38.11-.98,2.4-2.02,4.79-3.06,7.18-.67,1.85-1.45,3.89-2.17,5.56-.63,1.44-1.27,2.88-1.9,4.32-.77,1.9-1.6,3.79-2.3,5.71.38-1.05.7-1.91,1.05-2.87-11.01,25.24-22.13,50.42-33.76,75.38-25.48,54.71-52.65,108.63-81.45,161.67-48.73,89.75-102.13,176.97-159.86,261.21-3.54-46.61-5.79-93.3-7.58-140.02-5.7-149.2-6.12-298.63-.07-447.83ZM2588.66,1657.8h.02c-.14-.02-.15-.02-.02,0ZM2600.79,1659.12c.07,0,.15,0,.21,0,.14.07.27.15.4.22-.09-.01-.19-.02-.27-.03-.12-.07-.22-.12-.34-.19ZM2108.69,2564.16c.47,3.72.93,7.43,1.4,11.15-1.01-4.34-1.88-8.99-1.4-11.15ZM2669.96,2538.28c-2.04,5.61-4.18,11.18-6.34,16.75.16-.14.31-.22.43-.2-.08-.01-.34.33-.71.94-.42,1.07-.8,2.15-1.22,3.22-7.06,17.94-4.61,9.05-1.62,1.88-9.29,17.43-33.69,67.06-36.78,72.2-6.05,10.06-12.37,19.96-18.98,29.66-3.47,5.1-7.13,10.06-10.7,15.08-18.08,21.16-36.76,41.46-57.88,59.67-.41.36-1.06.84-1.78,1.38-1.24,1.32-3.01,2.9-5.51,4.68-1.12.8-2.28,1.55-3.41,2.34-.72.7-1.34,1.37-1.7,1.96.31-.51.61-.94.92-1.42-8.62,6.01-17.38,11.8-26.36,17.25-11.6,7.04-23.52,13.59-35.68,19.63-3.86,1.92-7.77,3.72-11.66,5.56-.12.04-.22.07-.35.12-22.96,8.03-45.91,15.3-69.79,20.12-3.16.64-16.19,2-16.2,2.21-11.48.81-22.99,1.23-34.5,1.01-12.63-.24-54.28-8.96-10.73.91-11.55-2.62-23.22-4.17-34.73-7.2-4.88-1.28-9.68-2.96-14.48-4.67-1.15.22-7.08-1.08-12.5-3.74-.74-.36-1.46-.77-2.2-1.13-1.58-.47-3.15-.98-4.74-1.37,1.49.36,2.78.69,4.07,1.03-6.46-3.25-12.81-6.68-19.04-10.36-5.47-3.23-10.67-6.8-15.84-10.41-1.62-1.01-4.07-2.66-6.43-4.48-2.83-1.95-5.67-3.88-8.58-5.72,2.78,1.76,5.03,3.21,7.03,4.5-.54-.44-1.07-.88-1.56-1.32-5.12-4.55-10.12-9.23-14.98-14.06-7.57-7.52-14.43-15.64-21.64-23.47-4.48-6.48-9.03-12.9-13.24-19.59-5.87-9.33-11.37-18.89-16.51-28.63-2.74-5.19-5.31-10.46-7.84-15.76.32,1.13.62,2.19.97,3.46-.33-1.21-.7-2.4-1.04-3.61-.42-.87-.88-1.72-1.29-2.59-3.82-8.13-5.73-19.86-1.92-8.25-7.32-23.79-15.85-46.92-20.7-71.75-.26-1.33-1.15-4.6-2-8.16-.41-3.48-.83-6.95-1.16-10.44-1.51-15.11-2.48-30.27-2.97-45.45-1.1-33.89.25-67.85,3.26-101.61.6-6.77,1.28-13.54,2.01-20.3.21-1.93.36-5.28.45-8.74.86-11.74,4.17-23.89,6.16-35.34,5.68-32.82,12.43-65.45,20.2-97.84,15.19-63.25,34.32-125.54,57.21-186.43,4.86-12.93,9.53-26.28,14.92-39.16,1.15-2.3,2.52-5.14,3.38-7.03,4.16-9.13,8.15-18.33,12.35-27.44,15.01-32.51,31.07-64.57,48.34-95.94,16.05-29.17,33.23-57.75,52.08-85.2,3.43-4.99,6.9-9.95,10.44-14.86,2.64-3.69,5.33-7.34,8.06-10.97,6.1-8.13,3.58-4.87-7.57,9.77,1.02-9.27,26.38-31.1,32.54-37.68,11.34-12.12,23.18-23.79,35.58-34.83,4.52-4.02,9.24-7.82,13.76-11.84.04-.04.07-.06.11-.1.3-.19.56-.36.89-.57,15.13-9.79,29.8-19.71,45.76-28.2,5.3-2.82,10.73-5.38,16.08-8.12.38-.2.69-.36,1.04-.54,13.96-4.87,27.89-9.59,42.27-13.17,1.22-.3,8.75-1.55,15.44-2.83-6.69.3-10.59-.71,9.44-2.08.81-.25,1.34-.47,1.39-.64-.06.21-.22.4-.43.59,14.18-.92,28.21-.53,42.38,0,3.84.87,7.69,1.72,11.53,2.58-.36-.2-.67-.36-1.06-.57.31.1.62.2.93.31.27.14.53.28.79.42.32.07.64.15.96.22,5.65,2.2,9.18,4.76,5.63,3.26,3.49,1.85,6.95,3.81,10.35,5.9-.78-1.02-1.58-2.13-2.42-3.33,1.25,1.79,3.83,3.89,6.38,5.83,1.01.71,1.92,1.39,2.7,2.03,1.2.9,2.28,1.72,3.03,2.38,10.64,9.41,20.68,19.52,30.19,30.07,3.64,4.04,8.3,10.8,11.33,15.42-1.74-2.8-4.27-6.92-7.81-12.74,5.28,8.69,11.92,16.61,17.26,25.31,5.5,8.97,16.97,23.02,17.61,33.6-2.22-5.07-4.45-10.13-6.67-15.2,1.68,4.43,3.24,8.9,4.69,13.41,3.49,10.53,6.51,21.18,9.2,31.94,6.85,27.47,13.61,57.02,15.58,85.33-2.58-37.05,1.29,12.32,2.25,21.19,2.07,19.24,3.85,38.51,5.29,57.8,4.99,66.66,6.3,133.58,3.88,200.38-.22,6.02-.49,12.03-.77,18.05-4.85,13.72-7.8,28.55-8.5,44.23-1.52,34.23-3.02,68.46-4.53,102.69-.13.7-.24,1.35-.33,1.94-8.84,57.14-21.06,113.85-38.37,169.06-3.98,12.7-8.23,25.32-12.77,37.84ZM2030.31,4333.84c-.74-1.24,5.2,3.71,10.33,8.04-4.34-2.5-8.72-5.33-10.33-8.04ZM2649.22,3764.9c-1.1,6.64-1.98,13.33-3.03,19.98-1.84,11.64-3.79,23.26-5.89,34.85-4.5,24.82-9.62,49.52-15.47,74.06-11.03,46.23-24.62,91.92-41.59,136.33-2.91,7.62-6.22,15.1-9.06,22.74,14.07-37.85,3.14-7.94-1.02,1.02-8.66,18.65-17.97,36.99-27.94,54.97-9.33,16.81-19.23,33.31-29.7,49.43-5.23,8.06-10.62,16.02-16.14,23.88-1.66,2.36-6.07,8.36-9.81,13.44-3.65,4.5-9.45,11.75-11.47,14.12-6.2,7.29-12.54,14.45-19.02,21.48-13.85,15.03-28.34,29.48-43.49,43.2-7.06,6.39-14.25,12.61-21.58,18.68-.87.72-1.63,1.35-2.33,1.94-16.29,11.51-32.7,22.65-49.93,32.71-15.35,8.95-31.17,16.81-47.13,24.59l-.05.02c-.47.18-.9.34-1.41.53-11.5,4.38-23.14,8.35-34.92,11.9-10.96,3.3-22.03,6.26-33.2,8.78-6.39,1.45-12.85,2.51-19.24,3.94-.52.12-1.28.25-2.14.38-7.19.57-17.18,1.39-19.83,1.52-13.01.63-26.06.63-39.08-.02-3.2-.16-11.33-1.66-16.19-1.78-6.26-1.24-12.54-2.4-18.73-4-7.62-1.97-15.15-4.23-22.61-6.74-.88-.3-1.75-.62-2.62-.93-11.71-6.61-24.16-11.99-35.59-19.28-1.64-1.05-4.06-2.35-6.63-3.79-3.14-2.69-6.39-5.28-9.48-8.03-11.3-10.08-21.95-20.89-31.92-32.28-4.28-4.9-8.14-10.22-12.5-15.04,3.44,3.8,6.15,6.81,8.31,9.23-2.24-2.71-4.54-5.65-6.12-8.02-8.54-12.83-16.36-26.14-23.47-39.81-2.97-5.71-5.62-11.58-8.45-17.36-.23-.59-.47-1.18-.69-1.77-10.7-28.79-17.89-58.28-23.45-88.38,0-.04,0-.08,0-.12-.49-7.91-1.29-15.79-1.64-23.72-.75-16.96-.61-33.95.42-50.89.34-5.55.86-11.08,1.38-16.62.05-.26.1-.47.15-.73,3.41-16.56,6.87-32.99,11.77-49.2,1.95-6.45,4.05-12.85,6.3-19.19.56-1.58,1.35-3.41,2.22-5.27-.73,1.28-1.5,2.64-2.37,4.16,1.51-2.64,2.89-5.37,4.3-8.08.77-1.5,1.53-2.92,2.22-4.18,6.37-12.72,12.06-25.89,19.12-38.26,9.32-16.33,19.45-32.2,30.24-47.59.87-1.24,2.61-3.65,4.56-6.32,2.4-2.68,13.59-16.72,16.37-19.9,25.91-29.74,54.34-57.23,84.53-82.6,2.84-2.38,12.56-10.09,16.38-13.21,3.38-2.51,6.63-4.92,8.13-6,16.93-12.21,34.26-23.86,51.91-35,34.44-21.72,70.11-41.47,106.62-59.48,16.42-8.1,33.01-15.84,49.74-23.26,2.07-.92,3.74-1.66,5.12-2.28,9.41-3.82,18.83-7.62,28.3-11.28,37.82-14.58,76.21-27.66,115.09-39.07,39.43-11.57,79.35-21.45,119.66-29.43,17.43-3.45,34.94-6.38,52.48-9.21-3.24,77.42-7.1,155.64-19.84,231.58.06-.35,4.04-27.17,1.42-11.37Z"/>
  </g>
</svg>