<?xml version="1.0" encoding="UTF-8"?>
<svg id="Layer_2" data-name="Layer 2" xmlns="http://www.w3.org/2000/svg" viewBox="0 0 3517.78 4767.91">
  <defs>
    <style>
      .cls-1 {
        fill: none;
        stroke: #000;
        stroke-miterlimit: 10;
        stroke-width: 400px;
      }
    </style>
  </defs>
  <g id="Layer_1-2" data-name="Layer 1">
    <path class="cls-1" d="M100.34,3068.15s788-457,1108.4-1143.63c343.33-735.79,557.6-1651.37,164.9-1719.24-455.61-78.75-556.47,744.98-605.3,1081.87-50.66,349.5-141.62,866.32,146.41,1407.88,100.59,189.12,554.59,587.12,1056.59,22.12,0,0-64-1082,592-1151,267.9-28.18,385,447,223.86,1128.88-41.49,175.59-556.86,547.12-797.86,76.12-46.9-91.66-46-1191,574-1205,115.66-2.61,298-9,291,751l-74,1271s-25.2,909.33-543.6,973.67-465.22-401.45-465.22-401.45c0,0-8.18-367.22,360.82-538.22s427-195,722-174c137.66,9.8,428,139,476,268"/>
  </g>
</svg>