<?xml version="1.0" encoding="UTF-8"?>
<svg id="Layer_2" data-name="Layer 2" xmlns="http://www.w3.org/2000/svg" viewBox="0 0 638.83 849.09">
  <defs>
    <style>
      .cls-1 {
        opacity: .5;
      }

      .cls-2 {
        fill: #f1f1f1;
        stroke-width: 0px;
      }
    </style>
  </defs>
  <g id="Layer_1-2" data-name="Layer 1">
    <g class="cls-1">
      <path class="cls-2" d="M328.06,482.99c.93-1.44,1.3-2.56-1.14,1.5.06-.07.13-.15.19-.22.31-.43.63-.85.95-1.27Z"/>
      <path class="cls-2" d="M244.83,50.02s0,0-.01,0c0,0,0,0,0,0,0,0,0,0,.01,0,0,0,0,0,0,0Z"/>
      <path class="cls-2" d="M245.41,50.48c-.05-.01-.11-.03-.16-.04.88.77,1.7,1.08,2.19,1.12-.73-.33-1.45-.69-2.02-1.07Z"/>
      <path class="cls-2" d="M255.17,512.86c-5.64-1.11-1.87-.18,0,0h0Z"/>
      <path class="cls-2" d="M250.14,53.13c-1.04-.74-1.75-1.11,0,0h0Z"/>
      <path class="cls-2" d="M255.14,58.64c-.41-.61-.8-1.23-1.17-1.86-.04-.05-.09-.1-.13-.16,1.26,2.33,1.55,2.57,1.3,2.01Z"/>
      <path class="cls-2" d="M242.77,50.06c-.57,0-1.14-.01-1.57-.02-.12.03-.28.06-.48.11.5.25,1.41.11,2.04-.08Z"/>
      <path class="cls-2" d="M258.45,164.61c.03-.18.06-.36.08-.55.05-.43.1-.87.16-1.3.18-1.64.25-3.07-.24,1.85Z"/>
      <path class="cls-2" d="M223.86,289.1c.08-.17.15-.35.23-.52.24-.6.49-1.21.74-1.8.43-1.18.57-1.9-.97,2.32Z"/>
      <path class="cls-2" d="M389.89,486.73s0,.02.01.03c-.25-.9-.45-1.55-.6-2.01.2.66.4,1.32.59,1.98Z"/>
      <path class="cls-2" d="M465.54,302.8s-.04,0-.06,0c-.35.11-1.01.24-1.72.38.72-.03,1.62-.15,1.9-.39-.04,0-.08,0-.11,0Z"/>
      <path class="cls-2" d="M475.62,303.29s-.08-.02-.12-.03c.65.35,1.08.56,1.32.66-.4-.21-.8-.43-1.2-.64Z"/>
      <path class="cls-2" d="M403.73,505.52c.09.07.19.15.28.22.39.27.78.54,1.17.82.58.36.54.25-1.46-1.04Z"/>
      <path class="cls-2" d="M460.81,501.28s.1-.06.14-.1c.44-.43,1.16-.94,1.63-1.28,1.03-1.1-.15-1.14-1.77,1.38Z"/>
      <path class="cls-2" d="M411.56,510.35s.08.04.12.06c.9.27,1.79.57,2.68.89.21-.04-.43-.35-2.81-.95Z"/>
      <path class="cls-2" d="M479.92,305.83c-.16-.12-.32-.24-.49-.37-.07-.05-.13-.09-.2-.14-.17-.11-.35-.21-.52-.32,1.94,2.56,2.68,2.04,1.22.83Z"/>
      <path class="cls-2" d="M488.05,314.57c.88,1.41.63.97,0,0h0Z"/>
      <path class="cls-2" d="M485.6,467.41c.23-.43.41-.75.52-.93.02-.04.03-.09.05-.13-.15.13-.36.57-.57,1.07Z"/>
      <path class="cls-2" d="M357.63,724.17c-.13.26-.27.51-.41.76-.12.23-.24.48-.35.72,1.68-2.96,1.39-2.62.76-1.48Z"/>
      <path class="cls-2" d="M631.76,649.89c-5.91-6.95-11.48-14.31-18.57-20.11-14.3-11.68-29.46-20.4-47.03-26.29-8.74-2.93-17.72-4.98-26.82-6.29.44-12.32.85-24.64,1.39-36.92,1.83-41.29,3.66-82.58,5.49-123.87.15-3.47.31-6.94.46-10.41.63-4.88,1.14-9.75,1.56-14.58,1.35-15.67,1.58-31.45.68-47.15-.94-16.31-2.43-33.17-6.39-49.05-3.74-14.99-11.26-27.99-21.64-39.32-6.33-6.9-13.47-12.36-21.39-16.26-2.34-1.74-5.04-3.09-8.07-3.93-30.54-8.49-61.52,2.25-85.2,21.9-19.76,16.39-33.37,40.08-43.85,63.17-11.5,25.33-20.22,51.72-24.61,79.23-2.7,16.94-3.9,33.71-2.3,50.19-.12.22-.24.44-.35.66-1.95,4.06-4.17,7.96-6.73,11.67-.11.16-.22.31-.34.46-.24.38-.52.77-.8,1.1-.05.06-.1.11-.15.17-.21.28-.4.57-.58.87.14-.24.26-.44.39-.65-1.41,1.66-2.87,3.27-4.4,4.83-1.65,1.69-3.36,3.31-5.13,4.87-1.78,1.57-7.75,5.11-.96.97-4.07,2.48-7.8,5.43-11.99,7.75-1.9,1.06-3.84,2.05-5.8,2.99-.54.26-1.08.5-1.62.75-4.4,1.61-8.81,3.12-13.36,4.25-2.12.53-4.26,1-6.41,1.4-.73.14-1.46.25-2.19.37-4.44.4-8.86.67-13.32.56-2.17-.05-4.35-.17-6.52-.36-.02,0-.03,0-.05,0,.45.09.95.19,1.52.3-.84-.17-1.72-.26-2.57-.4-4.71-.8-9.35-1.95-13.88-3.47-.8-.27-1.59-.56-2.37-.85-1.82-.94-3.78-1.71-5.58-2.67-4.23-2.26-8.03-5.01-12.05-7.59-.68-.56-1.35-1.12-2.01-1.69-1.64-1.43-3.23-2.91-4.78-4.43-3.15-3.1-5.82-6.56-8.76-9.81-.5-.69-1-1.38-1.48-2.09-1.24-1.8-2.43-3.63-3.58-5.49-2.55-4.13-4.88-8.4-7.01-12.76-.86-1.77-1.67-3.56-2.48-5.35-.3-.75-.6-1.49-.89-2.24-1.05-2.73-2.03-5.48-2.96-8.25,18.18-22.1,34.7-45.58,49.32-70.17,47.56-80,75.33-172.32,76.84-265.55.44-27.22.14-58.06-16.72-80.92-9.37-12.71-21.75-22.8-37.13-27.26-16.78-4.87-34.88-1.26-49.6,7.74-45.9,28.04-62.42,83.95-71.99,133.55-11.3,58.56-15.99,118.34-15.5,177.94.31,37.14,1.27,75.71,9.46,112.36-13.97,15.3-28.83,29.81-44.5,43.37-3.82,3.31-7.69,6.56-11.6,9.75-1.96,1.6-3.93,3.18-5.91,4.75-.76.61-1.53,1.21-2.3,1.81-.35.26-.69.53-1.04.79-8.48,6.43-17.15,12.59-26.01,18.48-8.89,5.91-17.96,11.51-27.2,16.85-11.33,6.55-16.26,22.89-8.97,34.2,7.37,11.42,22.09,15.98,34.2,8.97,40.87-23.63,78.46-52.74,111.83-86.09,17.21,33.78,44.47,62.04,82.45,72.37,42.65,11.61,92.05-1.23,123.75-32.14,11.96,16.23,29.3,28.84,48.74,33.68,25.56,6.36,52.99.96,75.55-12.2,4.13-2.41,8.01-5.05,11.68-7.86-.83,18.71-1.66,37.41-2.5,56.12-8.73.91-17.38,2.28-25.87,3.99-32.11,6.47-64.5,18.97-91.88,37.04-29.01,19.14-54.89,46.19-64.63,80.36-8.29,29.09-3.75,62.89,12.44,88.51,8.24,13.04,19.51,24.72,33.14,32.14,18.69,10.18,39.22,12.19,60.03,9.13,36.95-5.45,67.85-30.97,88.29-61.06,21.59-31.79,29.89-69.92,33.82-107.56,1.1-10.52,1.92-21.07,2.59-31.65,5.59,1.13,11.11,2.59,16.51,4.43,1.61.55,3.2,1.17,4.8,1.75.06.03.1.05.16.08,3.35,1.53,6.62,3.22,9.8,5.07,2.99,1.75,5.85,3.68,8.69,5.65.05.04.09.06.14.1.63.51,1.27,1.02,1.89,1.55,2.03,1.7,3.91,3.52,5.69,5.49,4.01,4.43,7.8,9.07,11.66,13.62,8.5,10.01,26.73,9.4,35.36,0,9.78-10.65,9.06-24.68,0-35.36ZM243.34,49.83c-.19-.04-.39-.08-.58-.12.77-.12.85-.02.58.12ZM172.26,272.75c.55-13.61,1.4-27.21,2.57-40.78.58-6.78,1.25-13.56,2-20.32.36-3.22.73-6.44,1.13-9.66.2-1.61.41-3.22.61-4.82.03-.26.06-.47.08-.66.05-.35.11-.79.19-1.37,3.52-25.14,7.86-50.43,14.71-74.91,1.4-5,2.92-9.97,4.62-14.89.85-2.45,1.73-4.88,2.67-7.3.47-1.21,1.27-2.6,1.63-3.89.02-.04.03-.07.05-.11,2.13-4.65,4.46-9.21,7.05-13.63,1.28-2.2,2.63-4.35,4.04-6.47.81-1.22,1.64-2.42,2.5-3.6,1.66-.83,3.57-4.31,4.87-5.72,1.92-2.07,3.91-4.06,5.99-5.96.95-.87,1.92-1.73,2.9-2.57.71-.6,4.62-2.73,1.32-1.12-3.55,1.74,1.08-.64,1.61-.98,1.66-1.07,3.36-2.07,5.13-2.96.27-.14.5-.26.7-.36.7-.2,1.54-.39,2.11-.52-.08-.04-.15-.09-.21-.15.02.02.29.03.69.04.06-.01.11-.03.15-.03.55-.13.96-.22,1.28-.27.2.05.4.11.59.16-.12.06-.27.11-.46.17.37,0,.74,0,1.07,0,.47.13.94.25,1.42.38-.14-.12-.28-.26-.43-.41-.04,0-.09,0-.15,0,.06,0,.11,0,.15-.01-.04-.04-.08-.08-.12-.12.04.04.09.08.13.12.02,0,.04,0,.05-.01-.01,0-.03.01-.04.01.16.16.36.31.58.46.42.11.84.23,1.25.34,1.43.37,1.43.79.77.74.87.4,1.73.77,2.33,1.16.81.53,1.57,1.17,2.39,1.67-.9-.55-1.54-.95-2.02-1.25.48.34,1.03.76,1.42,1.14.71.68,1.39,1.38,2.05,2.1.07.08.15.17.22.25-.13-.24-.26-.49-.41-.77.17.32.36.62.54.93.55.69,1,1.47,1.17,1.86.73,1.1,1.48,2.21,2.09,3.38.3.58,2.03,5.6.92,1.78-1.13-3.91.87,2.89,1.07,3.57.82,2.78,1.48,5.62,2.01,8.47.07.36.4,3.22.47,3.46.01.15.02.27.03.32.56,6.24.71,12.52.77,18.79.19,20.9-1.02,41.8-3.56,62.54-.07.6-.16,1.21-.24,1.81-.04.4-.09.82-.14,1.15,0,.05-.01.1-.02.14-.06.44-.12.89-.16,1.33.03-.28.05-.54.08-.78-.36,2.48-.73,4.95-1.12,7.42-.86,5.4-1.81,10.79-2.85,16.16-1.99,10.26-4.29,20.46-6.91,30.58-5.25,20.28-11.74,40.23-19.39,59.73-.91,2.33-1.84,4.64-2.79,6.96-.18.44-.37.87-.56,1.31-.12.34-.26.71-.4,1.01-.11.26-.23.53-.35.79-.14.35-.29.69-.42,1.04.07-.19.13-.35.19-.52-2.01,4.61-4.04,9.2-6.16,13.76-4.65,9.99-9.61,19.83-14.87,29.51-8.89,16.38-18.64,32.3-29.18,47.68-.65-8.51-1.06-17.03-1.38-25.56-1.04-27.23-1.12-54.51-.01-81.74ZM472.49,302.58h0s-.03,0,0,0ZM474.7,302.82s.03,0,.04,0c.02.01.05.03.07.04-.02,0-.03,0-.05,0-.02-.01-.04-.02-.06-.03ZM384.88,468.02c.08.68.17,1.36.25,2.03-.18-.79-.34-1.64-.25-2.03ZM487.33,463.29c-.37,1.02-.76,2.04-1.16,3.06.03-.03.06-.04.08-.04-.02,0-.06.06-.13.17-.08.2-.15.39-.22.59-1.29,3.27-.84,1.65-.3.34-1.7,3.18-6.15,12.24-6.71,13.18-1.1,1.84-2.26,3.64-3.46,5.41-.63.93-1.3,1.84-1.95,2.75-3.3,3.86-6.71,7.57-10.56,10.89-.08.07-.19.15-.32.25-.23.24-.55.53-1.01.85-.21.15-.42.28-.62.43-.13.13-.24.25-.31.36.06-.09.11-.17.17-.26-1.57,1.1-3.17,2.15-4.81,3.15-2.12,1.28-4.29,2.48-6.51,3.58-.7.35-1.42.68-2.13,1.01-.02,0-.04.01-.06.02-4.19,1.46-8.38,2.79-12.74,3.67-.58.12-2.95.36-2.96.4-2.1.15-4.2.22-6.3.18-2.31-.04-9.91-1.64-1.96.17-2.11-.48-4.24-.76-6.34-1.31-.89-.23-1.77-.54-2.64-.85-.21.04-1.29-.2-2.28-.68-.14-.07-.27-.14-.4-.21-.29-.09-.58-.18-.87-.25.27.07.51.13.74.19-1.18-.59-2.34-1.22-3.48-1.89-1-.59-1.95-1.24-2.89-1.9-.29-.18-.74-.49-1.17-.82-.52-.36-1.04-.71-1.57-1.04.51.32.92.59,1.28.82-.1-.08-.19-.16-.28-.24-.93-.83-1.85-1.68-2.73-2.57-1.38-1.37-2.63-2.85-3.95-4.28-.82-1.18-1.65-2.36-2.42-3.58-1.07-1.7-2.07-3.45-3.01-5.23-.5-.95-.97-1.91-1.43-2.88.06.21.11.4.18.63-.06-.22-.13-.44-.19-.66-.08-.16-.16-.31-.24-.47-.7-1.48-1.05-3.63-.35-1.51-1.34-4.34-2.89-8.56-3.78-13.1-.05-.24-.21-.84-.36-1.49-.07-.63-.15-1.27-.21-1.9-.28-2.76-.45-5.53-.54-8.3-.2-6.19.05-12.38.6-18.55.11-1.24.23-2.47.37-3.71.04-.35.07-.96.08-1.6.16-2.14.76-4.36,1.12-6.45,1.04-5.99,2.27-11.95,3.69-17.86,2.77-11.54,6.26-22.91,10.44-34.03.89-2.36,1.74-4.8,2.72-7.15.21-.42.46-.94.62-1.28.76-1.67,1.49-3.35,2.25-5.01,2.74-5.93,5.67-11.79,8.82-17.51,2.93-5.32,6.07-10.54,9.51-15.55.63-.91,1.26-1.82,1.91-2.71.48-.67.97-1.34,1.47-2,1.11-1.48.65-.89-1.38,1.78.19-1.69,4.81-5.68,5.94-6.88,2.07-2.21,4.23-4.34,6.49-6.36.83-.73,1.69-1.43,2.51-2.16,0,0,.01-.01.02-.02.05-.03.1-.07.16-.1,2.76-1.79,5.44-3.6,8.35-5.15.97-.52,1.96-.98,2.93-1.48.07-.04.13-.07.19-.1,2.55-.89,5.09-1.75,7.71-2.4.22-.06,1.6-.28,2.82-.52-1.22.06-1.93-.13,1.72-.38.15-.05.24-.09.25-.12-.01.04-.04.07-.08.11,2.59-.17,5.15-.1,7.73,0,.7.16,1.4.31,2.1.47-.07-.04-.12-.07-.19-.1.06.02.11.04.17.06.05.03.1.05.15.08.06.01.12.03.18.04,1.03.4,1.68.87,1.03.59.64.34,1.27.69,1.89,1.08-.14-.19-.29-.39-.44-.61.23.33.7.71,1.16,1.06.19.13.35.25.49.37.22.16.42.31.55.43,1.94,1.72,3.77,3.56,5.51,5.49.66.74,1.51,1.97,2.07,2.81-.32-.51-.78-1.26-1.42-2.32.96,1.59,2.18,3.03,3.15,4.62,1,1.64,3.1,4.2,3.21,6.13-.41-.92-.81-1.85-1.22-2.77.31.81.59,1.62.86,2.45.64,1.92,1.19,3.87,1.68,5.83,1.25,5.01,2.48,10.41,2.84,15.58-.47-6.76.24,2.25.41,3.87.38,3.51.7,7.03.97,10.55.91,12.17,1.15,24.38.71,36.57-.04,1.1-.09,2.2-.14,3.29-.89,2.5-1.42,5.21-1.55,8.07-.28,6.25-.55,12.5-.83,18.74-.02.13-.04.25-.06.35-1.61,10.43-3.84,20.78-7,30.86-.73,2.32-1.5,4.62-2.33,6.91ZM370.58,791.02c-.14-.23.95.68,1.89,1.47-.79-.46-1.59-.97-1.89-1.47ZM483.54,687.18c-.2,1.21-.36,2.43-.55,3.65-.34,2.12-.69,4.25-1.07,6.36-.82,4.53-1.76,9.04-2.82,13.52-2.01,8.44-4.49,16.78-7.59,24.88-.53,1.39-1.13,2.76-1.65,4.15,2.57-6.91.57-1.45-.19.19-1.58,3.4-3.28,6.75-5.1,10.03-1.7,3.07-3.51,6.08-5.42,9.02-.95,1.47-1.94,2.92-2.95,4.36-.3.43-1.11,1.53-1.79,2.45-.67.82-1.72,2.14-2.09,2.58-1.13,1.33-2.29,2.64-3.47,3.92-2.53,2.74-5.17,5.38-7.94,7.88-1.29,1.17-2.6,2.3-3.94,3.41-.16.13-.3.25-.42.35-2.97,2.1-5.97,4.13-9.11,5.97-2.8,1.63-5.69,3.07-8.6,4.49h0c-.08.04-.16.07-.26.1-2.1.8-4.22,1.52-6.37,2.17-2,.6-4.02,1.14-6.06,1.6-1.17.26-2.35.46-3.51.72-.09.02-.23.05-.39.07-1.31.1-3.14.25-3.62.28-2.37.12-4.76.11-7.13,0-.58-.03-2.07-.3-2.95-.33-1.14-.23-2.29-.44-3.42-.73-1.39-.36-2.77-.77-4.13-1.23-.16-.05-.32-.11-.48-.17-2.14-1.21-4.41-2.19-6.5-3.52-.3-.19-.74-.43-1.21-.69-.57-.49-1.17-.96-1.73-1.47-2.06-1.84-4.01-3.81-5.83-5.89-.78-.89-1.49-1.87-2.28-2.75.63.69,1.12,1.24,1.52,1.68-.41-.5-.83-1.03-1.12-1.46-1.56-2.34-2.99-4.77-4.28-7.27-.54-1.04-1.03-2.11-1.54-3.17-.04-.11-.09-.22-.13-.32-1.95-5.26-3.27-10.64-4.28-16.13,0,0,0-.01,0-.02-.09-1.44-.24-2.88-.3-4.33-.14-3.1-.11-6.2.08-9.29.06-1.01.16-2.02.25-3.03,0-.05.02-.08.03-.13.62-3.02,1.25-6.02,2.15-8.98.36-1.18.74-2.35,1.15-3.5.1-.29.25-.62.41-.96-.13.23-.27.48-.43.76.28-.48.53-.98.78-1.48.14-.27.28-.53.41-.76,1.16-2.32,2.2-4.72,3.49-6.98,1.7-2.98,3.55-5.88,5.52-8.69.16-.23.48-.67.83-1.15.44-.49,2.48-3.05,2.99-3.63,4.73-5.43,9.92-10.45,15.43-15.08.52-.44,2.29-1.84,2.99-2.41.62-.46,1.21-.9,1.48-1.1,3.09-2.23,6.25-4.36,9.48-6.39,6.29-3.96,12.8-7.57,19.46-10.86,3-1.48,6.02-2.89,9.08-4.25.38-.17.68-.3.93-.42,1.72-.7,3.44-1.39,5.17-2.06,6.9-2.66,13.91-5.05,21.01-7.13,7.2-2.11,14.48-3.92,21.84-5.37,3.18-.63,6.38-1.17,9.58-1.68-.59,14.13-1.3,28.41-3.62,42.27.01-.06.74-4.96.26-2.08Z"/>
      <path class="cls-2" d="M364.46,784.25c1.12,1.36,2.14,2.39,0,0h0Z"/>
    </g>
  </g>
</svg>