<?xml version="1.0" encoding="UTF-8"?>
<svg id="Layer_2" data-name="Layer 2" xmlns="http://www.w3.org/2000/svg" viewBox="0 0 444.61 442.56">
  <defs>
    <style>
      .cls-1 {
        fill: #000;
      }

      .cls-1, .cls-2 {
        stroke-width: 0px;
      }

      .cls-2 {
        fill: #fff;
      }
    </style>
  </defs>
  <g id="Layer_1-2" data-name="Layer 1">
    <g>
      <path class="cls-2" d="M244.41,7.82l10.31,8.34c6.23,5.04,14.49,6.79,22.23,4.73l12.81-3.42c16.02-4.28,32.86,3.21,40.4,17.99l6.03,11.81c3.64,7.13,10.47,12.1,18.39,13.36l13.09,2.08c16.38,2.61,28.71,16.3,29.59,32.86l.7,13.24c.43,8,4.65,15.31,11.36,19.68l11.12,7.23c13.9,9.04,19.6,26.57,13.66,42.05l-4.74,12.38c-2.87,7.48-1.98,15.88,2.38,22.6l7.21,11.13c9.02,13.91,7.1,32.24-4.62,43.98l-9.37,9.38c-5.66,5.67-8.27,13.7-7.02,21.61l2.06,13.1c2.58,16.38-6.63,32.34-22.11,38.29l-12.38,4.76c-7.48,2.88-13.13,9.15-15.21,16.89l-3.44,12.81c-4.3,16.02-19.21,26.85-35.77,25.99l-13.24-.68c-8-.41-15.72,3.02-20.76,9.24l-8.35,10.3c-10.45,12.88-28.47,16.71-43.25,9.19l-11.82-6.01c-7.14-3.63-15.59-3.63-22.73,0l-11.82,6.01c-14.78,7.52-32.81,3.69-43.25-9.19l-8.35-10.3c-5.05-6.22-12.76-9.66-20.76-9.24l-13.24.68c-16.56.86-31.47-9.98-35.77-25.99l-3.44-12.81c-2.08-7.74-7.73-14.01-15.21-16.89l-12.38-4.76c-15.48-5.95-24.69-21.91-22.11-38.29l2.06-13.1c1.25-7.91-1.36-15.95-7.02-21.61l-9.37-9.38c-11.72-11.73-13.64-30.06-4.62-43.98l7.21-11.13c4.36-6.72,5.24-15.12,2.38-22.6l-4.74-12.38c-5.93-15.49-.24-33.01,13.66-42.05l11.12-7.23c6.72-4.37,10.94-11.68,11.36-19.68l.7-13.24c.88-16.56,13.21-30.25,29.59-32.86l13.09-2.08c7.91-1.26,14.74-6.22,18.39-13.36l6.03-11.81c7.54-14.77,24.37-22.27,40.4-17.99l12.81,3.42c7.74,2.07,16,.31,22.23-4.73l10.31-8.34c12.9-10.43,31.32-10.43,44.22,0Z"/>
      <path class="cls-1" d="M222.3,10c5.74,0,11.36,1.99,15.82,5.6l10.31,8.34c6.22,5.03,14.05,7.8,22.05,7.8,3.05,0,6.1-.4,9.05-1.19l12.81-3.42c2.13-.57,4.31-.86,6.5-.86,9.5,0,18.09,5.26,22.41,13.73l6.03,11.81c5.08,9.95,14.69,16.93,25.72,18.69l13.1,2.08c11.64,1.85,20.55,11.74,21.17,23.52l.7,13.24c.59,11.15,6.54,21.45,15.9,27.53l11.12,7.23c9.88,6.43,14,19.08,9.78,30.09l-4.74,12.38c-3.99,10.43-2.75,22.25,3.32,31.62l7.21,11.13c6.41,9.89,5.02,23.13-3.31,31.47l-9.37,9.38c-7.89,7.9-11.56,19.21-9.82,30.24l2.06,13.1c1.84,11.65-4.82,23.17-15.82,27.4l-12.38,4.76c-10.42,4.01-18.38,12.84-21.27,23.63l-3.44,12.81c-2.95,10.97-12.93,18.63-24.28,18.63-.44,0-.88-.01-1.32-.03l-13.24-.68c-.6-.03-1.21-.05-1.81-.05-10.62,0-20.54,4.73-27.23,12.98l-8.35,10.3c-4.8,5.92-11.93,9.32-19.56,9.32-3.99,0-7.82-.92-11.39-2.74l-11.82-6.01c-4.9-2.49-10.4-3.81-15.9-3.81s-11,1.32-15.9,3.81l-11.82,6.01c-3.57,1.82-7.4,2.74-11.39,2.74-7.63,0-14.76-3.4-19.56-9.32l-8.35-10.3c-6.69-8.25-16.61-12.98-27.23-12.98-.6,0-1.21.02-1.81.05l-13.24.68c-.44.02-.88.03-1.31.03-11.35,0-21.34-7.66-24.28-18.63l-3.44-12.81c-2.9-10.79-10.85-19.62-21.27-23.63l-12.38-4.76c-11-4.23-17.66-15.76-15.82-27.4l2.06-13.1c1.74-11.03-1.93-22.33-9.82-30.24l-9.37-9.38c-8.33-8.34-9.72-21.58-3.31-31.47l7.21-11.13c6.08-9.37,7.32-21.19,3.32-31.62l-4.74-12.38c-4.22-11.01-.1-23.67,9.78-30.09l11.12-7.23c9.36-6.09,15.3-16.38,15.9-27.53l.7-13.24c.63-11.77,9.53-21.66,21.17-23.52l13.09-2.08c11.03-1.75,20.64-8.74,25.72-18.69l6.03-11.81c4.32-8.47,12.91-13.73,22.41-13.73,2.19,0,4.37.29,6.5.86l12.81,3.42c2.95.79,6,1.19,9.05,1.19,8,0,15.83-2.77,22.05-7.8l10.31-8.34c4.46-3.61,10.08-5.6,15.82-5.6M222.3,0c-7.83,0-15.66,2.61-22.11,7.82l-10.31,8.34c-4.51,3.65-10.09,5.57-15.76,5.57-2.16,0-4.33-.28-6.47-.85l-12.81-3.42c-3.02-.81-6.07-1.2-9.08-1.2-12.96,0-25.2,7.2-31.31,19.18l-6.03,11.81c-3.64,7.13-10.47,12.1-18.39,13.36l-13.09,2.08c-16.38,2.61-28.71,16.3-29.59,32.86l-.7,13.24c-.42,8-4.65,15.31-11.36,19.68l-11.12,7.23c-13.9,9.04-19.6,26.57-13.66,42.05l4.74,12.38c2.87,7.48,1.98,15.88-2.38,22.6l-7.21,11.13c-9.02,13.91-7.1,32.24,4.62,43.98l9.37,9.38c5.66,5.67,8.27,13.7,7.02,21.61l-2.06,13.1c-2.58,16.38,6.63,32.34,22.11,38.29l12.38,4.76c7.48,2.88,13.13,9.15,15.21,16.89l3.44,12.81c4.14,15.42,18.12,26.04,33.94,26.04.61,0,1.22-.02,1.83-.05l13.24-.68c.43-.02.86-.03,1.3-.03,7.53,0,14.69,3.39,19.47,9.28l8.35,10.3c6.86,8.46,16.99,13.02,27.33,13.02,5.4,0,10.85-1.24,15.92-3.82l11.82-6.01c3.57-1.82,7.47-2.72,11.36-2.72s7.79.91,11.36,2.72l11.82,6.01c5.07,2.58,10.53,3.82,15.92,3.82,10.33,0,20.47-4.56,27.33-13.02l8.35-10.3c4.77-5.89,11.93-9.28,19.47-9.28.43,0,.86.01,1.3.03l13.24.68c.61.03,1.22.05,1.83.05,15.82,0,29.8-10.62,33.94-26.04l3.44-12.81c2.08-7.74,7.73-14.01,15.21-16.89l12.38-4.76c15.48-5.95,24.69-21.91,22.11-38.29l-2.06-13.1c-1.25-7.91,1.36-15.95,7.02-21.61l9.37-9.38c11.72-11.73,13.64-30.06,4.62-43.98l-7.21-11.13c-4.36-6.72-5.24-15.12-2.38-22.6l4.74-12.38c5.93-15.49.24-33.01-13.66-42.05l-11.12-7.23c-6.72-4.37-10.94-11.68-11.36-19.68l-.7-13.24c-.88-16.56-13.21-30.25-29.59-32.86l-13.09-2.08c-7.91-1.26-14.74-6.22-18.39-13.36l-6.03-11.81c-6.12-11.99-18.36-19.18-31.31-19.18-3.01,0-6.06.39-9.08,1.2l-12.81,3.42c-2.13.57-4.31.85-6.47.85-5.67,0-11.25-1.93-15.76-5.57l-10.31-8.34c-6.45-5.21-14.28-7.82-22.11-7.82h0Z"/>
    </g>
  </g>
</svg>